<svg xmlns="http://www.w3.org/2000/svg" xmlns:xlink="http://www.w3.org/1999/xlink" version="1.1" class="marks" width="921" height="201" viewBox="0 0 921 201"><rect width="921" height="201" fill="white"/><g fill="none" stroke-miterlimit="10" transform="translate(215,5)"><g class="mark-group role-frame root" role="graphics-object" aria-roledescription="group mark container"><g transform="translate(0,0)"><path class="background" aria-hidden="true" d="M0.5,0.5h700v150h-700Z" stroke="#ddd"/><g><g class="mark-group role-axis" aria-hidden="true"><g transform="translate(0.5,150.5)"><path class="background" aria-hidden="true" d="M0,0h0v0h0Z" pointer-events="none"/><g><g class="mark-rule role-axis-grid" pointer-events="none"><line transform="translate(0,0)" x2="0" y2="-150" stroke="#ddd" stroke-width="1" opacity="1"/><line transform="translate(47,0)" x2="0" y2="-150" stroke="#ddd" stroke-width="1" opacity="1"/><line transform="translate(93,0)" x2="0" y2="-150" stroke="#ddd" stroke-width="1" opacity="1"/><line transform="translate(140,0)" x2="0" y2="-150" stroke="#ddd" stroke-width="1" opacity="1"/><line transform="translate(187,0)" x2="0" y2="-150" stroke="#ddd" stroke-width="1" opacity="1"/><line transform="translate(233,0)" x2="0" y2="-150" stroke="#ddd" stroke-width="1" opacity="1"/><line transform="translate(280,0)" x2="0" y2="-150" stroke="#ddd" stroke-width="1" opacity="1"/><line transform="translate(327,0)" x2="0" y2="-150" stroke="#ddd" stroke-width="1" opacity="1"/><line transform="translate(373,0)" x2="0" y2="-150" stroke="#ddd" stroke-width="1" opacity="1"/><line transform="translate(420,0)" x2="0" y2="-150" stroke="#ddd" stroke-width="1" opacity="1"/><line transform="translate(467,0)" x2="0" y2="-150" stroke="#ddd" stroke-width="1" opacity="1"/><line transform="translate(513,0)" x2="0" y2="-150" stroke="#ddd" stroke-width="1" opacity="1"/><line transform="translate(560,0)" x2="0" y2="-150" stroke="#ddd" stroke-width="1" opacity="1"/><line transform="translate(607,0)" x2="0" y2="-150" stroke="#ddd" stroke-width="1" opacity="1"/><line transform="translate(653,0)" x2="0" y2="-150" stroke="#ddd" stroke-width="1" opacity="1"/><line transform="translate(700,0)" x2="0" y2="-150" stroke="#ddd" stroke-width="1" opacity="1"/></g></g><path class="foreground" aria-hidden="true" d="" pointer-events="none" display="none"/></g></g><g class="mark-group role-axis" role="graphics-symbol" aria-roledescription="axis" aria-label="X-axis titled 'Time Taken (seconds)' for a linear scale with values from 0.0 to 3.0"><g transform="translate(0.5,150.5)"><path class="background" aria-hidden="true" d="M0,0h0v0h0Z" pointer-events="none"/><g><g class="mark-rule role-axis-tick" pointer-events="none"><line transform="translate(0,0)" x2="0" y2="5" stroke="#888" stroke-width="1" opacity="1"/><line transform="translate(47,0)" x2="0" y2="5" stroke="#888" stroke-width="1" opacity="1"/><line transform="translate(93,0)" x2="0" y2="5" stroke="#888" stroke-width="1" opacity="1"/><line transform="translate(140,0)" x2="0" y2="5" stroke="#888" stroke-width="1" opacity="1"/><line transform="translate(187,0)" x2="0" y2="5" stroke="#888" stroke-width="1" opacity="1"/><line transform="translate(233,0)" x2="0" y2="5" stroke="#888" stroke-width="1" opacity="1"/><line transform="translate(280,0)" x2="0" y2="5" stroke="#888" stroke-width="1" opacity="1"/><line transform="translate(327,0)" x2="0" y2="5" stroke="#888" stroke-width="1" opacity="1"/><line transform="translate(373,0)" x2="0" y2="5" stroke="#888" stroke-width="1" opacity="1"/><line transform="translate(420,0)" x2="0" y2="5" stroke="#888" stroke-width="1" opacity="1"/><line transform="translate(467,0)" x2="0" y2="5" stroke="#888" stroke-width="1" opacity="1"/><line transform="translate(513,0)" x2="0" y2="5" stroke="#888" stroke-width="1" opacity="1"/><line transform="translate(560,0)" x2="0" y2="5" stroke="#888" stroke-width="1" opacity="1"/><line transform="translate(607,0)" x2="0" y2="5" stroke="#888" stroke-width="1" opacity="1"/><line transform="translate(653,0)" x2="0" y2="5" stroke="#888" stroke-width="1" opacity="1"/><line transform="translate(700,0)" x2="0" y2="5" stroke="#888" stroke-width="1" opacity="1"/></g><g class="mark-text role-axis-label" pointer-events="none"><text text-anchor="start" transform="translate(0,19)" font-family="sans-serif" font-size="15px" fill="#000" opacity="1">0.0</text><text text-anchor="middle" transform="translate(46.666666666666664,19)" font-family="sans-serif" font-size="15px" fill="#000" opacity="1">0.2</text><text text-anchor="middle" transform="translate(93.33333333333333,19)" font-family="sans-serif" font-size="15px" fill="#000" opacity="1">0.4</text><text text-anchor="middle" transform="translate(140,19)" font-family="sans-serif" font-size="15px" fill="#000" opacity="1">0.6</text><text text-anchor="middle" transform="translate(186.66666666666666,19)" font-family="sans-serif" font-size="15px" fill="#000" opacity="1">0.8</text><text text-anchor="middle" transform="translate(233.33333333333331,19)" font-family="sans-serif" font-size="15px" fill="#000" opacity="1">1.0</text><text text-anchor="middle" transform="translate(280,19)" font-family="sans-serif" font-size="15px" fill="#000" opacity="1">1.2</text><text text-anchor="middle" transform="translate(326.66666666666663,19)" font-family="sans-serif" font-size="15px" fill="#000" opacity="1">1.4</text><text text-anchor="middle" transform="translate(373.3333333333333,19)" font-family="sans-serif" font-size="15px" fill="#000" opacity="1">1.6</text><text text-anchor="middle" transform="translate(420,19)" font-family="sans-serif" font-size="15px" fill="#000" opacity="1">1.8</text><text text-anchor="middle" transform="translate(466.66666666666663,19)" font-family="sans-serif" font-size="15px" fill="#000" opacity="1">2.0</text><text text-anchor="middle" transform="translate(513.3333333333334,19)" font-family="sans-serif" font-size="15px" fill="#000" opacity="1">2.2</text><text text-anchor="middle" transform="translate(560,19)" font-family="sans-serif" font-size="15px" fill="#000" opacity="1">2.4</text><text text-anchor="middle" transform="translate(606.6666666666667,19)" font-family="sans-serif" font-size="15px" fill="#000" opacity="1">2.6</text><text text-anchor="middle" transform="translate(653.3333333333333,19)" font-family="sans-serif" font-size="15px" fill="#000" opacity="1">2.8</text><text text-anchor="end" transform="translate(700,19)" font-family="sans-serif" font-size="15px" fill="#000" opacity="1">3.0</text></g><g class="mark-rule role-axis-domain" pointer-events="none"><line transform="translate(0,0)" x2="700" y2="0" stroke="#888" stroke-width="1" opacity="1"/></g><g class="mark-text role-axis-title" pointer-events="none"><text text-anchor="middle" transform="translate(350,38)" font-family="sans-serif" font-size="15px" font-weight="bold" fill="#000" opacity="1">Time Taken (seconds)</text></g></g><path class="foreground" aria-hidden="true" d="" pointer-events="none" display="none"/></g></g><g class="mark-group role-axis" role="graphics-symbol" aria-roledescription="axis" aria-label="Y-axis for a discrete scale with 3 values: Vectorized UDF Numba JIT, Vectorized UDF Rust-based, Pure SQL"><g transform="translate(0.5,0.5)"><path class="background" aria-hidden="true" d="M0,0h0v0h0Z" pointer-events="none"/><g><g class="mark-rule role-axis-tick" pointer-events="none"><line transform="translate(0,25)" x2="-5" y2="0" stroke="#888" stroke-width="1" opacity="1"/><line transform="translate(0,75)" x2="-5" y2="0" stroke="#888" stroke-width="1" opacity="1"/><line transform="translate(0,125)" x2="-5" y2="0" stroke="#888" stroke-width="1" opacity="1"/></g><g class="mark-text role-axis-label" pointer-events="none"><text text-anchor="end" transform="translate(-7,29.5)" font-family="sans-serif" font-size="15px" fill="#000" opacity="1">Vectorized UDF Numba JIT</text><text text-anchor="end" transform="translate(-7,79.5)" font-family="sans-serif" font-size="15px" fill="#000" opacity="1">Vectorized UDF Rust-based</text><text text-anchor="end" transform="translate(-7,129.5)" font-family="sans-serif" font-size="15px" fill="#000" opacity="1">Pure SQL</text></g><g class="mark-rule role-axis-domain" pointer-events="none"><line transform="translate(0,0)" x2="0" y2="150" stroke="#888" stroke-width="1" opacity="1"/></g></g><path class="foreground" aria-hidden="true" d="" pointer-events="none" display="none"/></g></g><g class="mark-rect role-mark marks" role="graphics-object" aria-roledescription="rect mark container"><path aria-label="time_taken: 2.998; approach: Vectorized UDF Numba JIT" role="graphics-symbol" aria-roledescription="bar" d="M0,5h699.5333333333334v40h-699.5333333333334Z" fill="rgb(21, 14, 55)" opacity="0.7"/><path aria-label="time_taken: 2.566; approach: Vectorized UDF Rust-based" role="graphics-symbol" aria-roledescription="bar" d="M0,55h598.7333333333333v40h-598.7333333333333Z" fill="rgb(17, 12, 47)" opacity="0.7"/><path aria-label="time_taken: 0.3479; approach: Pure SQL" role="graphics-symbol" aria-roledescription="bar" d="M0,105h81.17666666666666v40h-81.17666666666666Z" fill="rgb(1, 1, 9)" opacity="0.7"/></g></g><path class="foreground" aria-hidden="true" d="" display="none"/></g></g></g></svg>