<svg xmlns="http://www.w3.org/2000/svg" xmlns:xlink="http://www.w3.org/1999/xlink" version="1.1" class="marks" width="952" height="171" viewBox="0 0 952 171"><rect width="952" height="171" fill="white"/><g fill="none" stroke-miterlimit="10" transform="translate(246,5)"><g class="mark-group role-frame root" role="graphics-object" aria-roledescription="group mark container"><g transform="translate(0,0)"><path class="background" aria-hidden="true" d="M0.5,0.5h700v120h-700Z" stroke="#ddd"/><g><g class="mark-group role-axis" aria-hidden="true"><g transform="translate(0.5,120.5)"><path class="background" aria-hidden="true" d="M0,0h0v0h0Z" pointer-events="none"/><g><g class="mark-rule role-axis-grid" pointer-events="none"><line transform="translate(0,0)" x2="0" y2="-120" stroke="#ddd" stroke-width="1" opacity="1"/><line transform="translate(50,0)" x2="0" y2="-120" stroke="#ddd" stroke-width="1" opacity="1"/><line transform="translate(100,0)" x2="0" y2="-120" stroke="#ddd" stroke-width="1" opacity="1"/><line transform="translate(150,0)" x2="0" y2="-120" stroke="#ddd" stroke-width="1" opacity="1"/><line transform="translate(200,0)" x2="0" y2="-120" stroke="#ddd" stroke-width="1" opacity="1"/><line transform="translate(250,0)" x2="0" y2="-120" stroke="#ddd" stroke-width="1" opacity="1"/><line transform="translate(300,0)" x2="0" y2="-120" stroke="#ddd" stroke-width="1" opacity="1"/><line transform="translate(350,0)" x2="0" y2="-120" stroke="#ddd" stroke-width="1" opacity="1"/><line transform="translate(400,0)" x2="0" y2="-120" stroke="#ddd" stroke-width="1" opacity="1"/><line transform="translate(450,0)" x2="0" y2="-120" stroke="#ddd" stroke-width="1" opacity="1"/><line transform="translate(500,0)" x2="0" y2="-120" stroke="#ddd" stroke-width="1" opacity="1"/><line transform="translate(550,0)" x2="0" y2="-120" stroke="#ddd" stroke-width="1" opacity="1"/><line transform="translate(600,0)" x2="0" y2="-120" stroke="#ddd" stroke-width="1" opacity="1"/><line transform="translate(650,0)" x2="0" y2="-120" stroke="#ddd" stroke-width="1" opacity="1"/><line transform="translate(700,0)" x2="0" y2="-120" stroke="#ddd" stroke-width="1" opacity="1"/></g></g><path class="foreground" aria-hidden="true" d="" pointer-events="none" display="none"/></g></g><g class="mark-group role-axis" role="graphics-symbol" aria-roledescription="axis" aria-label="X-axis titled 'Time Taken (seconds)' for a linear scale with values from 0 to 28"><g transform="translate(0.5,120.5)"><path class="background" aria-hidden="true" d="M0,0h0v0h0Z" pointer-events="none"/><g><g class="mark-rule role-axis-tick" pointer-events="none"><line transform="translate(0,0)" x2="0" y2="5" stroke="#888" stroke-width="1" opacity="1"/><line transform="translate(50,0)" x2="0" y2="5" stroke="#888" stroke-width="1" opacity="1"/><line transform="translate(100,0)" x2="0" y2="5" stroke="#888" stroke-width="1" opacity="1"/><line transform="translate(150,0)" x2="0" y2="5" stroke="#888" stroke-width="1" opacity="1"/><line transform="translate(200,0)" x2="0" y2="5" stroke="#888" stroke-width="1" opacity="1"/><line transform="translate(250,0)" x2="0" y2="5" stroke="#888" stroke-width="1" opacity="1"/><line transform="translate(300,0)" x2="0" y2="5" stroke="#888" stroke-width="1" opacity="1"/><line transform="translate(350,0)" x2="0" y2="5" stroke="#888" stroke-width="1" opacity="1"/><line transform="translate(400,0)" x2="0" y2="5" stroke="#888" stroke-width="1" opacity="1"/><line transform="translate(450,0)" x2="0" y2="5" stroke="#888" stroke-width="1" opacity="1"/><line transform="translate(500,0)" x2="0" y2="5" stroke="#888" stroke-width="1" opacity="1"/><line transform="translate(550,0)" x2="0" y2="5" stroke="#888" stroke-width="1" opacity="1"/><line transform="translate(600,0)" x2="0" y2="5" stroke="#888" stroke-width="1" opacity="1"/><line transform="translate(650,0)" x2="0" y2="5" stroke="#888" stroke-width="1" opacity="1"/><line transform="translate(700,0)" x2="0" y2="5" stroke="#888" stroke-width="1" opacity="1"/></g><g class="mark-text role-axis-label" pointer-events="none"><text text-anchor="start" transform="translate(0,19)" font-family="sans-serif" font-size="15px" fill="#000" opacity="1">0</text><text text-anchor="middle" transform="translate(50,19)" font-family="sans-serif" font-size="15px" fill="#000" opacity="1">2</text><text text-anchor="middle" transform="translate(100,19)" font-family="sans-serif" font-size="15px" fill="#000" opacity="1">4</text><text text-anchor="middle" transform="translate(150,19)" font-family="sans-serif" font-size="15px" fill="#000" opacity="1">6</text><text text-anchor="middle" transform="translate(200,19)" font-family="sans-serif" font-size="15px" fill="#000" opacity="1">8</text><text text-anchor="middle" transform="translate(250,19)" font-family="sans-serif" font-size="15px" fill="#000" opacity="1">10</text><text text-anchor="middle" transform="translate(300,19)" font-family="sans-serif" font-size="15px" fill="#000" opacity="1">12</text><text text-anchor="middle" transform="translate(350,19)" font-family="sans-serif" font-size="15px" fill="#000" opacity="1">14</text><text text-anchor="middle" transform="translate(400,19)" font-family="sans-serif" font-size="15px" fill="#000" opacity="1">16</text><text text-anchor="middle" transform="translate(450.00000000000006,19)" font-family="sans-serif" font-size="15px" fill="#000" opacity="1">18</text><text text-anchor="middle" transform="translate(500,19)" font-family="sans-serif" font-size="15px" fill="#000" opacity="1">20</text><text text-anchor="middle" transform="translate(550,19)" font-family="sans-serif" font-size="15px" fill="#000" opacity="1">22</text><text text-anchor="middle" transform="translate(600,19)" font-family="sans-serif" font-size="15px" fill="#000" opacity="1">24</text><text text-anchor="middle" transform="translate(650,19)" font-family="sans-serif" font-size="15px" fill="#000" opacity="1">26</text><text text-anchor="end" transform="translate(700,19)" font-family="sans-serif" font-size="15px" fill="#000" opacity="1">28</text></g><g class="mark-rule role-axis-domain" pointer-events="none"><line transform="translate(0,0)" x2="700" y2="0" stroke="#888" stroke-width="1" opacity="1"/></g><g class="mark-text role-axis-title" pointer-events="none"><text text-anchor="middle" transform="translate(350,38)" font-family="sans-serif" font-size="15px" font-weight="bold" fill="#000" opacity="1">Time Taken (seconds)</text></g></g><path class="foreground" aria-hidden="true" d="" pointer-events="none" display="none"/></g></g><g class="mark-group role-axis" role="graphics-symbol" aria-roledescription="axis" aria-label="Y-axis for a discrete scale with 2 values: Python Native UDF, Python Native UDF - Numba JIT"><g transform="translate(0.5,0.5)"><path class="background" aria-hidden="true" d="M0,0h0v0h0Z" pointer-events="none"/><g><g class="mark-rule role-axis-tick" pointer-events="none"><line transform="translate(0,30)" x2="-5" y2="0" stroke="#888" stroke-width="1" opacity="1"/><line transform="translate(0,90)" x2="-5" y2="0" stroke="#888" stroke-width="1" opacity="1"/></g><g class="mark-text role-axis-label" pointer-events="none"><text text-anchor="end" transform="translate(-7,34.5)" font-family="sans-serif" font-size="15px" fill="#000" opacity="1">Python Native UDF</text><text text-anchor="end" transform="translate(-7,94.5)" font-family="sans-serif" font-size="15px" fill="#000" opacity="1">Python Native UDF - Numba JIT</text></g><g class="mark-rule role-axis-domain" pointer-events="none"><line transform="translate(0,0)" x2="0" y2="120" stroke="#888" stroke-width="1" opacity="1"/></g></g><path class="foreground" aria-hidden="true" d="" pointer-events="none" display="none"/></g></g><g class="mark-rect role-mark marks" role="graphics-object" aria-roledescription="rect mark container"><path aria-label="time_taken: 26.701; approach: Python Native UDF" role="graphics-symbol" aria-roledescription="bar" d="M0,6h667.525v48h-667.525Z" fill="rgb(254, 202, 141)" opacity="0.7"/><path aria-label="time_taken: 23.443; approach: Python Native UDF - Numba JIT" role="graphics-symbol" aria-roledescription="bar" d="M0,66h586.075v48h-586.075Z" fill="rgb(253, 150, 105)" opacity="0.7"/></g></g><path class="foreground" aria-hidden="true" d="" display="none"/></g></g></g></svg>